# xmcd CD database file
#
# Track frame offsets:
#	150
#	18661
#	37642
#	67004
#	100157
#	115556
#	141293
#	176830
#	201828
#	226221
#
# Disc length: 3609 seconds
#
# Revision: 1
# Processed by: cddbd v1.4PL0 Copyright (c) Steve Scherf et al.
# Submitted via: CDex 1.40Release
#
DISCID=810e170a
DTITLE=Jony James - Some Things Never Change
DYEAR=1999
DGENRE=Blues
TTITLE0=Fool with a Guitar
TTITLE1=Hurry Home
TTITLE2=Don't Cry To Me
TTITLE3=So Long Sugar
TTITLE4=Some Things Never Change
TTITLE5=Hey Little Girl
TTITLE6=Blue as Blue Can Be
TTITLE7=Song In My Pocket
TTITLE8=Point Of No Return
TTITLE9=Fine Fine Fox
EXTD=YEAR: 1999 ID3G: 0
EXTT0=
EXTT1=
EXTT2=
EXTT3=
EXTT4=
EXTT5=
EXTT6=
EXTT7=
EXTT8=
EXTT9=
PLAYORDER=
